<svg width="16" height="16" viewBox="0 0 16 16" fill="none" xmlns="http://www.w3.org/2000/svg">
<path d="M7.99398 1.33203C4.31398 1.33203 1.33398 4.3187 1.33398 7.9987C1.33398 11.6787 4.31398 14.6654 7.99398 14.6654C11.6807 14.6654 14.6673 11.6787 14.6673 7.9987C14.6673 4.3187 11.6807 1.33203 7.99398 1.33203ZM12.614 5.33203H10.6473C10.434 4.4987 10.1273 3.6987 9.72732 2.9587C10.954 3.3787 11.974 4.23203 12.614 5.33203ZM8.00065 2.69203C8.55398 3.49203 8.98732 4.3787 9.27398 5.33203H6.72732C7.01398 4.3787 7.44732 3.49203 8.00065 2.69203ZM2.84065 9.33203C2.73398 8.90536 2.66732 8.4587 2.66732 7.9987C2.66732 7.5387 2.73398 7.09203 2.84065 6.66536H5.09398C5.04065 7.10536 5.00065 7.54536 5.00065 7.9987C5.00065 8.45203 5.04065 8.89203 5.09398 9.33203H2.84065ZM3.38732 10.6654H5.35398C5.56732 11.4987 5.87398 12.2987 6.27398 13.0387C5.04732 12.6187 4.02732 11.772 3.38732 10.6654ZM5.35398 5.33203H3.38732C4.02732 4.22536 5.04732 3.3787 6.27398 2.9587C5.87398 3.6987 5.56732 4.4987 5.35398 5.33203ZM8.00065 13.3054C7.44732 12.5054 7.01398 11.6187 6.72732 10.6654H9.27398C8.98732 11.6187 8.55398 12.5054 8.00065 13.3054ZM9.56065 9.33203H6.44065C6.38065 8.89203 6.33398 8.45203 6.33398 7.9987C6.33398 7.54536 6.38065 7.0987 6.44065 6.66536H9.56065C9.62065 7.0987 9.66732 7.54536 9.66732 7.9987C9.66732 8.45203 9.62065 8.89203 9.56065 9.33203ZM9.72732 13.0387C10.1273 12.2987 10.434 11.4987 10.6473 10.6654H12.614C11.974 11.7654 10.954 12.6187 9.72732 13.0387ZM10.9073 9.33203C10.9607 8.89203 11.0007 8.45203 11.0007 7.9987C11.0007 7.54536 10.9607 7.10536 10.9073 6.66536H13.1607C13.2673 7.09203 13.334 7.5387 13.334 7.9987C13.334 8.4587 13.2673 8.90536 13.1607 9.33203H10.9073Z" fill="white" fill-opacity="0.7"/>
</svg>
