<svg width="64" height="16" viewBox="0 0 64 16" fill="none" xmlns="http://www.w3.org/2000/svg">
<path d="M4.94038 12.9759C5.36305 12.9759 5.70823 12.9406 5.98296 12.8702C6.25769 12.7998 6.47607 12.7082 6.64514 12.5814C6.81421 12.4616 6.92692 12.3137 6.99032 12.1517C7.05372 11.9826 7.08894 11.7994 7.08894 11.5951C7.08894 11.1584 6.88465 10.7991 6.47607 10.5173C6.06749 10.2285 5.37009 9.91857 4.36978 9.58748C3.93302 9.4325 3.50331 9.25639 3.06655 9.05914C2.6298 8.8619 2.24235 8.61534 1.89717 8.31243C1.55199 8.00952 1.27022 7.65025 1.05888 7.22054C0.840505 6.79083 0.734836 6.27658 0.734836 5.66371C0.734836 5.05085 0.847549 4.50138 1.08002 4.00827C1.31248 3.51515 1.63653 3.09953 2.05215 2.75435C2.47482 2.40917 2.98202 2.14853 3.5808 1.95833C4.17958 1.77517 4.85585 1.68359 5.6096 1.68359C6.50425 1.68359 7.2721 1.78222 7.92019 1.97242C8.56828 2.16262 9.10366 2.37395 9.52632 2.60642L8.6669 4.95927C8.30059 4.76907 7.88496 4.6 7.43412 4.45207C6.98327 4.30413 6.43381 4.23369 5.7998 4.23369C5.08831 4.23369 4.57407 4.33231 4.25707 4.52956C3.94711 4.7268 3.78509 5.02971 3.78509 5.43829C3.78509 5.6778 3.84145 5.88209 3.95416 6.05116C4.06687 6.22023 4.22889 6.36816 4.44022 6.502C4.65156 6.63585 4.89107 6.7556 5.1658 6.86832C5.44054 6.97398 5.74345 7.08669 6.07454 7.19941C6.76489 7.45301 7.36367 7.70661 7.87087 7.95316C8.37808 8.19972 8.80779 8.49559 9.14592 8.82668C9.48406 9.15776 9.73766 9.54521 9.89968 9.99606C10.0617 10.4399 10.1462 10.9823 10.1462 11.6233C10.1462 12.8561 9.70948 13.8212 8.84301 14.4975C7.97654 15.1808 6.66627 15.5189 4.92629 15.5189C4.3416 15.5189 3.81327 15.4837 3.34129 15.4132C2.86931 15.3428 2.45369 15.2583 2.08737 15.1526C1.72106 15.054 1.4111 14.9413 1.15046 14.8286C0.889814 14.7158 0.671437 14.6031 0.488281 14.5045L1.32657 12.1305C1.72106 12.3489 2.20713 12.5391 2.79182 12.7152C3.36947 12.8843 4.08096 12.9759 4.92629 12.9759H4.94038Z" fill="white"/>
<path d="M15.1987 8.80401C15.4805 8.5011 15.7693 8.1841 16.0652 7.85301C16.361 7.52192 16.6569 7.19788 16.9316 6.87383C17.2134 6.54979 17.4741 6.24687 17.7277 5.95101C17.9742 5.66218 18.1926 5.40858 18.3687 5.19021H21.7571C21.0808 5.9651 20.4187 6.70477 19.7776 7.41626C19.1366 8.1207 18.4321 8.85332 17.6643 9.60004C18.0447 9.94522 18.4392 10.3538 18.8477 10.8328C19.2563 11.3118 19.6508 11.805 20.0312 12.3192C20.4116 12.8334 20.7638 13.3406 21.0808 13.8478C21.3978 14.3621 21.6655 14.827 21.8839 15.2497H18.6082C18.4039 14.9186 18.1715 14.5523 17.9108 14.1508C17.6502 13.7492 17.3754 13.3477 17.0796 12.9462C16.7837 12.5446 16.4808 12.1572 16.1568 11.7838C15.8327 11.4105 15.5087 11.1005 15.1917 10.8469V15.2567H12.3457V0.871952L15.1917 0.414062V8.80401H15.1987Z" fill="white"/>
<path d="M31.8175 14.9096C31.3314 15.0505 30.7115 15.1773 29.9436 15.3041C29.1758 15.4239 28.3727 15.4873 27.5344 15.4873C26.6961 15.4873 25.9705 15.3746 25.3999 15.1421C24.8293 14.9096 24.3855 14.5926 24.0545 14.177C23.7234 13.7614 23.4839 13.2683 23.35 12.6977C23.2091 12.1271 23.1387 11.4931 23.1387 10.8027V5.20236H25.9846V10.4575C25.9846 11.3733 26.1044 12.0355 26.3509 12.4441C26.5905 12.8526 27.0484 13.0569 27.7105 13.0569C27.9148 13.0569 28.1332 13.0499 28.3586 13.0288C28.5911 13.0076 28.7883 12.9865 28.9715 12.9583V5.19531H31.8175V14.9096Z" fill="white"/>
<path d="M43.841 10.22C43.841 11.023 43.7212 11.7486 43.4887 12.3967C43.2563 13.0448 42.9111 13.6013 42.4673 14.0592C42.0235 14.5171 41.474 14.8693 40.8259 15.1229C40.1778 15.3695 39.4382 15.4963 38.6069 15.4963C38.2617 15.4963 37.9025 15.4822 37.5291 15.4469C37.1558 15.4117 36.7824 15.3765 36.4231 15.3201C36.0568 15.2708 35.7116 15.2074 35.3806 15.137C35.0495 15.0665 34.7536 14.9961 34.5 14.9186V0.871952L37.346 0.414062V5.42267C37.663 5.28178 37.994 5.17612 38.3392 5.09863C38.6844 5.02114 39.0507 4.98592 39.4452 4.98592C40.1567 4.98592 40.7907 5.11272 41.3402 5.35927C41.8896 5.60583 42.3475 5.9651 42.7138 6.42299C43.0801 6.88088 43.3619 7.43034 43.5521 8.07843C43.7423 8.71948 43.841 9.43801 43.841 10.227V10.22ZM40.9316 10.1425C40.9316 8.30386 40.2553 7.38808 38.9028 7.38808C38.6069 7.38808 38.3181 7.4233 38.0293 7.50079C37.7405 7.57828 37.508 7.66986 37.3319 7.78961V12.9743C37.4728 13.0025 37.6489 13.0236 37.8673 13.0377C38.0856 13.0589 38.3181 13.0659 38.5717 13.0659C39.3466 13.0659 39.9383 12.7982 40.3328 12.2628C40.7273 11.7275 40.9245 11.023 40.9245 10.1425H40.9316Z" fill="white"/>
<path d="M45.5676 10.296C45.5676 9.40138 45.7014 8.61945 45.9762 7.95022C46.2509 7.281 46.6102 6.72449 47.054 6.27364C47.4978 5.82984 48.012 5.49171 48.5967 5.25924C49.1744 5.02677 49.7731 4.91406 50.386 4.91406C51.816 4.91406 52.9431 5.35082 53.7673 6.22433C54.5986 7.09784 55.0072 8.37994 55.0072 10.0777C55.0072 10.2467 55.0072 10.4228 54.986 10.6201C54.9719 10.8173 54.9579 10.9934 54.9508 11.1484H48.484C48.5474 11.7331 48.8221 12.198 49.3082 12.5432C49.7943 12.8884 50.4424 13.0575 51.2595 13.0575C51.7808 13.0575 52.295 13.0081 52.8022 12.9166C53.3024 12.8179 53.718 12.7052 54.035 12.5643L54.4154 14.882C54.2605 14.9595 54.0562 15.037 53.8026 15.1144C53.549 15.1919 53.2672 15.2553 52.9502 15.3187C52.6402 15.3751 52.3021 15.4244 51.9428 15.4596C51.5836 15.4948 51.2313 15.516 50.8721 15.516C49.9633 15.516 49.1814 15.3821 48.5122 15.1144C47.843 14.8468 47.2864 14.4804 46.8497 14.0155C46.4129 13.5506 46.0818 13.0011 45.8776 12.3601C45.6733 11.719 45.5605 11.0357 45.5605 10.296H45.5676ZM52.2598 9.20414C52.2457 8.96463 52.2035 8.72512 52.133 8.49969C52.0626 8.26723 51.9569 8.06294 51.809 7.88682C51.6611 7.71071 51.4779 7.56278 51.2525 7.45007C51.027 7.33736 50.7523 7.281 50.4212 7.281C50.0901 7.281 49.8295 7.33736 49.597 7.44302C49.3646 7.54869 49.1744 7.69662 49.0264 7.87274C48.8714 8.04885 48.7587 8.26018 48.6742 8.49265C48.5897 8.72512 48.5333 8.96463 48.491 9.21118H52.2598V9.20414Z" fill="white"/>
<path d="M63.2711 7.72076C63.0175 7.65736 62.7146 7.58692 62.3694 7.51647C62.0243 7.44603 61.6579 7.41081 61.2635 7.41081C61.0873 7.41081 60.869 7.4249 60.6224 7.46012C60.3759 7.4883 60.1856 7.52352 60.0588 7.56579V15.2513H57.2129V5.72718C57.7201 5.55107 58.3259 5.382 59.0233 5.21998C59.7207 5.05796 60.4956 4.98047 61.348 4.98047C61.503 4.98047 61.6861 4.98751 61.9045 5.00865C62.1229 5.02978 62.3342 5.05091 62.5526 5.08614C62.771 5.11431 62.9823 5.15658 63.2007 5.19885C63.4191 5.24111 63.6022 5.29747 63.7572 5.36087L63.2782 7.71372L63.2711 7.72076Z" fill="white"/>
</svg>
