<svg width="72" height="72" viewBox="0 0 72 72" fill="none" xmlns="http://www.w3.org/2000/svg">
<g clip-path="url(#clip0_17317_163808)">
<g clip-path="url(#clip1_17317_163808)">
<path d="M35.7884 25.9596L25.5605 36.1875L35.7884 46.4154L46.0163 36.1875L35.7884 25.9596Z" fill="#4262A5"/>
<path d="M36.0101 72.0201C55.8979 72.0201 72.0201 55.8979 72.0201 36.0101C72.0201 16.1223 55.8979 0 36.0101 0C16.1223 0 0 16.1223 0 36.0101C0 55.8979 16.1223 72.0201 36.0101 72.0201Z" fill="#326DE6"/>
<path d="M36.01 65.1802C19.9161 65.1802 6.83984 52.1039 6.83984 36.01C6.83984 19.9161 19.9161 6.83984 36.01 6.83984C52.1039 6.83984 65.1802 19.9161 65.1802 36.01C65.1802 52.1039 52.1039 65.1802 36.01 65.1802ZM36.01 11.2455C22.3503 11.2455 11.2455 22.3503 11.2455 36.01C11.2455 49.6697 22.3503 60.7745 36.01 60.7745C49.6697 60.7745 60.7745 49.6697 60.7745 36.01C60.7745 22.3503 49.6697 11.2455 36.01 11.2455Z" fill="white"/>
<path d="M52.2242 36.1901L56.2275 32.1867C58.4203 29.9939 59.6273 27.0769 59.6273 23.9587C59.6273 20.8405 58.4203 17.9235 56.2275 15.7307C51.7011 11.2043 44.318 11.2043 39.7916 15.7307L35.7883 19.7341L31.7849 15.7307C27.2585 11.2043 19.8755 11.2043 15.3491 15.7307C13.1563 17.9235 11.9492 20.8405 11.9492 23.9587C11.9492 27.0769 13.1563 29.9939 15.3491 32.1867L19.3524 36.1901L15.3491 40.1934C10.8226 44.7198 10.8226 52.1029 15.3491 56.6293C17.6223 58.9026 20.5997 60.0292 23.577 60.0292C26.5544 60.0292 29.5318 58.9026 31.805 56.6293L35.8084 52.626L39.8118 56.6293C42.085 58.9026 45.0624 60.0292 48.0397 60.0292C51.0171 60.0292 53.9945 58.9026 56.2677 56.6293C60.7941 52.1029 60.7941 44.7198 56.2677 40.1934L52.2644 36.1901H52.2242ZM42.9098 18.8489C44.318 17.4407 46.1688 16.7366 48.0196 16.7366C49.8704 16.7366 51.7212 17.4407 53.1294 18.8489C54.4974 20.2169 55.2418 22.0275 55.2418 23.9587C55.2418 25.89 54.4974 27.7006 53.1294 29.0685L49.1261 33.0719L38.9065 22.8523L42.9098 18.8489ZM18.4471 29.0685C17.0791 27.7006 16.3348 25.89 16.3348 23.9587C16.3348 22.0275 17.0791 20.2169 18.4471 18.8489C19.8553 17.4407 21.7061 16.7366 23.5569 16.7366C25.4077 16.7366 27.2585 17.4407 28.6667 18.8489L32.6701 22.8523L22.4505 33.0719L18.4471 29.0685ZM28.6667 53.5312C25.8503 56.3477 21.2636 56.3477 18.4471 53.5312C15.6307 50.7148 15.6307 46.1281 18.4471 43.3116L22.4505 39.3083L32.6701 49.5279L28.6667 53.5312ZM35.748 46.3695V46.289L31.5234 42.0644H36.0096L36.0498 41.481L26.1118 35.6469L35.8084 25.9504L36.0699 26.2119L36.3113 26.4533L40.0934 30.2353H35.7883V30.2756L45.847 35.9688L46.028 36.1499L35.8084 46.3695L35.7682 46.3292L35.748 46.3695ZM53.1496 53.5312C50.3331 56.3477 45.7464 56.3477 42.9299 53.5312L38.9266 49.5279L49.1462 39.3083L53.1496 43.3116C55.966 46.1281 55.966 50.7148 53.1496 53.5312Z" fill="white"/>
</g>
</g>
<defs>
<clipPath id="clip0_17317_163808">
<rect width="72" height="72" fill="white"/>
</clipPath>
<clipPath id="clip1_17317_163808">
<rect width="72" height="72" fill="white"/>
</clipPath>
</defs>
</svg>
