<svg width="21" height="21" viewBox="0 0 21 21" fill="none" xmlns="http://www.w3.org/2000/svg">
<path d="M10.7574 0.394531C5.12891 0.394531 0.542969 4.97343 0.542969 10.609C0.542969 13.2507 1.55737 15.6528 3.20577 17.4633C3.3044 17.5901 3.39597 17.7169 3.50869 17.8366C3.6214 17.9564 3.7482 18.0339 3.86795 18.1254C5.68542 19.795 8.10167 20.8164 10.7574 20.8164C16.393 20.8164 20.9719 16.2375 20.9719 10.602C20.9719 4.96639 16.386 0.394531 10.7574 0.394531ZM9.17948 12.7294H10.7504L10.7645 12.5251L7.28452 10.4822L10.6799 7.08677L10.7715 7.17835L10.8561 7.26288L12.1804 8.58724H10.6729V8.60133L14.1951 10.5949L14.2585 10.6583L10.6799 14.2369L10.6659 14.2228V14.1946L9.18652 12.7153L9.17948 12.7294ZM4.94576 17.0335C4.72033 16.8293 4.509 16.6179 4.30471 16.3925C3.62844 15.4063 3.72706 14.0467 4.60058 13.1732L6.00242 11.7713L9.58101 15.3499L8.17916 16.7518C7.29861 17.6323 5.93198 17.7239 4.94576 17.0335ZM4.60058 4.60007C5.09369 4.10696 5.74178 3.8604 6.38987 3.8604C7.03796 3.8604 7.68605 4.10696 8.17916 4.60007L9.58101 6.00192L6.00242 9.58051L4.60058 8.17866C4.12155 7.69964 3.86091 7.06563 3.86091 6.38937C3.86091 5.7131 4.12155 5.0791 4.60058 4.60007ZM16.7452 4.60007C17.2242 5.0791 17.4849 5.7131 17.4849 6.38937C17.4849 7.06563 17.2242 7.69964 16.7452 8.17866L15.3434 9.58051L11.7648 6.00192L13.1666 4.60007C13.6598 4.10696 14.3078 3.8604 14.9559 3.8604C15.604 3.8604 16.2521 4.10696 16.7452 4.60007ZM15.3434 11.7643L16.7452 13.1661C17.7315 14.1524 17.7315 15.7585 16.7452 16.7447C15.759 17.7309 14.1529 17.7309 13.1666 16.7447L11.7648 15.3429L15.3434 11.7643ZM17.8371 12.0813L16.4353 10.6794L17.8371 9.2776C18.3302 8.78448 18.6613 8.17866 18.8515 7.53057C19.2178 8.48862 19.4292 9.5312 19.4292 10.616C19.4292 11.7009 19.2108 12.7857 18.8304 13.7649C18.6402 13.152 18.3232 12.5674 17.8371 12.0883V12.0813ZM13.8147 2.50787C13.1807 2.69103 12.5749 3.01507 12.0747 3.51523L10.6729 4.91707L9.27105 3.51523C8.79203 3.0362 8.22143 2.72625 7.62265 2.53605C8.59479 2.15565 9.65145 1.94431 10.7574 1.94431C11.8634 1.94431 12.8637 2.1486 13.8218 2.51491L13.8147 2.50787ZM2.56473 7.77008C2.76197 8.32659 3.07193 8.84788 3.50869 9.2776L4.91053 10.6794L3.50869 12.0813C3.08602 12.504 2.79015 12.99 2.59291 13.5184C2.26886 12.6096 2.07866 11.6304 2.07866 10.616C2.07866 9.60164 2.25477 8.66473 2.56473 7.77008ZM7.81285 18.7665C8.34119 18.5692 8.8343 18.2663 9.26401 17.8437L10.6659 16.4418L12.0677 17.8437C12.5115 18.2875 13.0469 18.5974 13.6034 18.7947C12.7088 19.1117 11.7437 19.2878 10.7433 19.2878C9.74303 19.2878 8.72863 19.0976 7.81285 18.7665Z" fill="white"/>
</svg>
